<svg id="Layer_1" data-name="Layer 1" xmlns="http://www.w3.org/2000/svg" viewBox="0 0 500 500"><defs><style>.cls-1{fill:#2e0006;}.cls-2{fill:#fc8f1e;}</style></defs><title>ai</title><rect class="cls-1" x="50" y="50" width="400" height="400" rx="50"/><path class="cls-2" d="M283.41,339.31a11.94,11.94,0,0,1-4.42-.65c-1-.44-2-1.69-2.86-3.77L259.75,292H178.89l-16.38,42.9c-.87,2.08-1.78,3.33-2.73,3.77a10.88,10.88,0,0,1-4.29.65H130.27q-4.16,0-5.46-1.43c-.86-1-.78-2.65.26-5.07l75.66-189.28q1.82-4.42,6.24-4.42h25.22c2.25,0,3.73.3,4.42.91a11.92,11.92,0,0,1,2.34,3.77l75.14,189q1.56,3.9.39,5.2t-5.59,1.3ZM191.11,260h56.42l-28.08-73.58Z"/><path class="cls-2" d="M345.81,171.35a19,19,0,0,1-14.3-6,20.3,20.3,0,0,1-5.72-14.56,21,21,0,0,1,5.59-14.69A18.69,18.69,0,0,1,345.81,130a19.08,19.08,0,0,1,14.56,6.11,20.74,20.74,0,0,1,5.72,14.69,20.3,20.3,0,0,1-5.72,14.56A19.26,19.26,0,0,1,345.81,171.35Zm-13.26,168a4.19,4.19,0,0,1-3.25-1c-.61-.69-.91-2.08-.91-4.16V198.65c0-2.08.26-3.47.78-4.16s1.65-1,3.38-1h25.74c1.73,0,2.9.35,3.51,1s.91,2.08.91,4.16V334.11c0,2.08-.3,3.47-.91,4.16s-1.78,1-3.51,1Z"/></svg>