<svg xmlns="http://www.w3.org/2000/svg" viewBox="0 0 500 500"><defs><style>.cls-1{fill:#5c4484;}</style></defs><title>Artboard 23 copy 5</title><g id="Layer_6" data-name="Layer 6"><path class="cls-1" d="M26,208.58Q105.43,262,184.9,315.45q60.94,40.95,121.92,81.87c3.16,2.12,5.85,4.1,10,1.29,40-27.16,80.3-53.94,120.16-81.32,14.12-9.7,26.22-21.79,34.65-37,11.18-20.22,9.13-41.21-5.62-58.41a89.92,89.92,0,0,0-14.41-13.78c-36.72-27.39-77.19-32.08-120.37-19.61-6.37,1.84-12.42,4.73-18.65,7.07-1.92.72-4.33,3.13-5.8,1.34-1.9-2.32,1.37-4,2.62-5.67,5.64-7.63,8.86-16,9-25.57.16-16.1-6.82-28.89-18.6-39-22.3-19.07-48.83-26.49-77.7-26.68-34.4-.24-64.76,11.48-92.82,30.54-34.34,23.33-68.86,46.38-103.3,69.56C19.72,204.28,19.69,204.35,26,208.58Zm280.21,17c17.39-9.12,35.93-14.65,55.81-13.78,21.43.95,39.89,9.12,55.15,24.21,6.72,6.65,10.41,15,10.51,22.87-.24,8.23-3.78,15.73-8.95,22.61-6.92,9.19-15.61,16.48-25,22.89-23.95,16.3-48.06,32.37-72,48.69-3.51,2.39-6.16,2.16-9.52-.12q-46.93-31.75-94-63.33c-2.47-1.67-5.67-3.43-1.15-6.32C246.85,264.21,274.73,242.09,306.2,225.59ZM92,197.94c24.29-16.14,48.3-32.71,72.89-48.39,15.37-9.8,32.36-15.71,51.27-15.52,19-.38,35.77,6.37,50.3,18.75,14,11.9,16.29,26.86,6.86,42.53-5.12,8.51-12.07,15.42-19.9,21.36-21.69,16.46-44.93,30.69-67.33,46.12-2.84,2-5.22,1.84-8-.05q-43.09-29.06-86.28-58C87.78,202.13,88.49,200.25,92,197.94Z"/></g></svg>