<svg xmlns="http://www.w3.org/2000/svg" viewBox="0 0 500 500"><defs><style>.cls-1{fill:#0c73b8;}</style></defs><title>Artboard 23 copy</title><g id="Layer_3" data-name="Layer 3"><g id="g3013"><path id="path2999" class="cls-1" d="M170.6,38.27h45.49v19H189.63v19h26.46v19H170.6Z"/><path id="path3001" class="cls-1" d="M225.19,38.27h45.49V54.82H244.21v3.3h26.47V96.17H225.19V78.8h26.46V75.49H225.19Z"/><path id="path3003" class="cls-1" d="M279.77,38.27h45.49V54.82H298.8v3.3h26.46V96.17H279.77V78.8h26.47V75.49H279.77Z"/><path class="cls-1" d="M100,121.49l27.3,306.22,122.52,34,122.85-34.06L400,121.49ZM337.17,260.1l-.92,10.09-8.82,98.87-.57,6.35L250,396.71h0l-.17,0-76.94-21.36-5.26-59h37.7L208,346.39l41.83,11.3h0l41.89-11.3,4.36-48.71H166l-3.37-37.56H299.37l3.42-38.45H159.24l-3.41-37.56H344Z"/></g></g></svg>