<svg xmlns="http://www.w3.org/2000/svg" viewBox="0 0 500 500"><defs><style>.cls-1{fill:#e54f26;}</style></defs><title>Artboard 23</title><g id="Layer_4" data-name="Layer 4"><path class="cls-1" d="M127.91,38.27H147V57.13h17.46V38.27h19.08V95.38H164.46V76.26H147V95.38H127.91V38.27Z"/><path class="cls-1" d="M208.64,57.21h-16.8V38.27h52.7V57.21H227.73V95.38H208.64V57.21Z"/><path class="cls-1" d="M252.9,38.27h19.9l12.25,20.07,12.23-20.07h19.91V95.38h-19V67.07L285.05,87.38h-.33L271.58,67.07V95.38H252.9Z"/><path class="cls-1" d="M326.68,38.27h19.1V76.5h26.84V95.38H326.68Z"/><path class="cls-1" d="M100,121.49l27.3,306.22,122.52,34,122.85-34.06L400,121.49Zm243.05,72.67-1.71,19-.75,8.45H196.87l3.43,38.45H337.17l-.92,10.09-8.82,98.87-.57,6.35L250,396.71h0l-.17,0-76.94-21.36-5.26-59h37.7L208,346.39l41.83,11.3h0l41.89-11.3,4.36-48.71H166l-9.23-103.5-.89-10.07H344Z"/></g></svg>