<svg xmlns="http://www.w3.org/2000/svg" viewBox="0 0 500 500"><defs><style>.cls-1{fill:#106baf;}.cls-2{fill:#585858;}</style></defs><title>Artboard 23 copy 3</title><g id="Layer_7" data-name="Layer 7"><path id="signet" class="cls-1" d="M266.31,100l-4.72,6.49c-6.3,9.27-6.9,20.8-2.52,31.05A43.73,43.73,0,0,0,284.14,161c.45.17.92.32,1.37.47l.62.2a19.22,19.22,0,0,0,2,.56c30.49,5.89,38.76-15.63,41-18.81-7.25,10.43-19.43,12.92-34.37,9.29a37.13,37.13,0,0,1-3.59-1.09,41.35,41.35,0,0,1-4.29-1.8,44.23,44.23,0,0,1-7.53-4.6c-13.36-10.14-21.69-29.47-13-45.23Zm-34.59,7.55L223,119.88c-10.7,15.39-10.11,36-1.77,52.27a69.11,69.11,0,0,0,4.72,7.89,37.58,37.58,0,0,0,5.53,6.88c.77.85,1.57,1.68,2.39,2.5l.64.62c.8.77,1.6,1.53,2.44,2.27l.09.08,0,0c.92.81,1.89,1.59,2.86,2.36l.65.51c1,.75,2,1.49,3,2.19l.08.08c.45.31.93.6,1.38.9l.65.42c.73.47,1.46.91,2.21,1.35l.31.19,2,1.1.7.36,1.37.71.2.11c.94.46,1.9.89,2.87,1.32l.64.25c.78.33,1.54.66,2.33,1l1,.36c.71.27,1.44.51,2.16.76l1,.31a24,24,0,0,0,3.11.9c55.22,9.14,68-33.36,68-33.36C322,190.76,299.77,198.65,276,192.48c-1-.28-2.11-.57-3.14-.9l-.93-.31c-.73-.24-1.46-.49-2.19-.76l-1-.36c-.79-.3-1.58-.63-2.36-1l-.64-.25c-1-.43-1.92-.88-2.87-1.35-.48-.23-1-.48-1.46-.73l-.81-.42c-.62-.33-1.25-.68-1.85-1l-.42-.25c-.75-.44-1.5-.88-2.22-1.35l-.68-.45L254,182.4c-1-.7-2-1.45-3-2.19l-.68-.5c-10.4-8.21-18.65-19.43-22.57-32.15-4.11-13.19-3.21-28,3.9-40Zm-43.09,15.58-11.54,14.66c-14.79,21.25-13,48.92-1.66,71.51.27.53.56,1.07.84,1.6.18.34.33.68.51,1l.34.59c.19.36.39.69.59,1,.35.62.72,1.23,1.09,1.85.2.34.38.67.59,1,.41.66.84,1.31,1.26,2l.54.82c.59.88,1.2,1.74,1.82,2.61l0,.08.31.42c.54.75,1.1,1.47,1.66,2.19l.61.79c.5.63,1,1.26,1.55,1.88l.56.7c.7.82,1.41,1.62,2.13,2.42l.06,0,.08.09c.71.77,1.43,1.52,2.16,2.27l.68.7c.57.57,1.16,1.13,1.74,1.69l.7.67c.78.73,1.56,1.46,2.36,2.16l.06,0,.39.37c.7.61,1.43,1.2,2.16,1.79l.87.71c.59.47,1.19.94,1.8,1.4l1,.73c.67.49,1.35,1,2,1.46l.73.51.2.14,2,1.29.85.56c1,.63,2,1.27,3.06,1.88l.84.48c.76.43,1.5.87,2.27,1.29.42.22.87.43,1.3.64l1.62.85.4.19.64.31c.86.41,1.74.82,2.61,1.21l.56.25c1,.44,2,.86,3,1.26l.73.29c1,.36,1.9.73,2.86,1.06l.37.14c1,.37,2.12.71,3.2,1l.75.23a28.64,28.64,0,0,0,3.29.92c71.52,13.05,92.31-43,92.31-43C312,238.68,281.06,244.69,251.71,238c-1.11-.25-2.2-.61-3.28-.93l-.82-.25c-1.06-.33-2.1-.65-3.14-1l-.42-.17c-.94-.33-1.87-.68-2.78-1l-.79-.31c-1-.4-2-.8-3-1.23l-.62-.26c-.85-.38-1.68-.77-2.53-1.18l-.73-.36c-.65-.32-1.29-.65-1.93-1l-1.32-.71c-.8-.43-1.58-.86-2.36-1.32l-.79-.42c-1-.6-2-1.24-3.06-1.88l-.81-.56c-.73-.47-1.47-.94-2.19-1.43l-.68-.51c-.7-.49-1.4-1-2.07-1.48l-.9-.68c-.62-.47-1.24-1-1.85-1.46l-.85-.67c-.78-.64-1.54-1.28-2.3-1.94l-.25-.2c-.82-.72-1.64-1.47-2.44-2.21l-.68-.68c-.59-.56-1.16-1.13-1.74-1.71l-.7-.67q-1.1-1.12-2.13-2.28l-.12-.11c-.73-.81-1.45-1.63-2.16-2.47l-.56-.67c-.53-.64-1.06-1.29-1.57-1.94l-.56-.7c-.62-.8-1.25-1.61-1.83-2.42-16.29-22.22-22.15-52.88-9.12-78.05Z"/><g id="jQuery"><path class="cls-2" d="M149,283.75c-29.69,0-42.59,21.38-47.51,44.62-4.92,23.4,1.52,43.93,31,43.76l23.3-.08L177.6,372a2.09,2.09,0,0,0,1.91-1.48l3.8-14.47a1.14,1.14,0,0,0-1.15-1.48h-3.63l-3.64,0a.94.94,0,0,1-1-1.08l.1-.34s8.21-20,10.08-31.5C186.58,306.14,178.87,283.75,149,283.75Zm306.46,8.54-4.8,0-3.05,0H434.94a3.23,3.23,0,0,0-2.38,1.26L404.5,334.68c-.47.7-1,.6-1.2-.21l-2.05-9.06a2,2,0,0,0-1.87-1.48h-18a1.08,1.08,0,0,0-1.1,1.46l8.07,28.31a6.63,6.63,0,0,1,.05,2.94l-3.53,13.7a1.13,1.13,0,0,0,1.15,1.48H403.8a2.08,2.08,0,0,0,1.91-1.48l3.52-13.7a9.27,9.27,0,0,1,1.29-2.69l45.55-60.44c.51-.67.24-1.22-.6-1.22ZM300.7,301.4c-29.35,0-36.3,17.81-40.2,35.79-3.9,18.32-3.57,35.45,26.8,35.45h8.53c8,0,16.05-.1,19.31-.13A2,2,0,0,0,317,371l1.23-6,.25-1.17,1.46-7.17a1.21,1.21,0,0,0-1.23-1.5H291.38c-10.86,0-14.09-2.87-12.91-11.36h43.69a1.82,1.82,0,0,0,1.59-1.13l.1-.38h0c6.48-24.44,4.62-40.89-23.14-40.89ZM146.55,302c16.38-.47,19.6,11.71,15.44,25.71l-.42,1.46v0l-3.29,11.67L155,352.5A2.14,2.14,0,0,1,153,354H135.61c-13.23,0-16.47-10.35-13.24-25.61,3.22-15.62,9.54-25.32,22.56-26.31Zm-66.45.25a2,2,0,0,0-1.87,1.49l-1.57,7-1.57,6.94a1.16,1.16,0,0,0,1.18,1.49H93a2,2,0,0,0,1.86-1.49l1.52-6.94,1.53-7a1.18,1.18,0,0,0-1.2-1.49Zm121,.19a2,2,0,0,0-1.84,1.49l-3.33,15.81-3.35,15.81v0l-.31,1.48c-3.84,17.53-2.81,34.24,18.06,34.77h33.35a2,2,0,0,0,1.83-1.5l7.07-33.19,7.06-33.2a1.18,1.18,0,0,0-1.21-1.49h-15.1a2,2,0,0,0-1.85,1.49l-5.35,24.79-5.37,24.81a2,2,0,0,1-1.84,1.49H218.23c-10.58,0-9.36-7.31-7.19-17.33l.06-.3.24-1.28,0-.23.49-2.57.51-2.75c.16-.83.4-2,.56-2.82l2.44-11.9,2.43-11.91a1.19,1.19,0,0,0-1.21-1.49Zm143,.17a2,2,0,0,0-1.85,1.49l-.61,2.91-.73,3.46-.2,1-6.29,29.45-6,28a6.48,6.48,0,0,0-.13,2.24c.1.41,1.7.74,2.54.74h12.6a8,8,0,0,0,2.35-.33c.46-.19,1.14-1.84,1.31-2.66l2.24-11.07,2.24-11.08h0l.3-1.48,2.72-12.73,2.4-11.24a2,2,0,0,1,1.83-1.48h39.64a1.17,1.17,0,0,0,1.17-1.5l-.68-2.86-.69-2.93-.36-1.49c-1.36-5.28-5.34-8.31-14-8.31l-13.48,0H344.1ZM296.81,318c9.41,0,11.23,4.58,10.59,9.75a1.85,1.85,0,0,1-1.77,1.58H282.77a1,1,0,0,1-1.09-1.2l0,0V328s0-.16.09-.39c2.19-5.8,6.65-9.61,15-9.61Zm-221.66,5.8a2,2,0,0,0-1.85,1.5L71,335.71l-2.35,10.4c-.19.82-.48,2.16-.66,3l-2.25,10.62-2.26,10.61c-.18.82-.54,2.15-.81,2.94,0,0-3.12,9.29-8.37,9.19h-.66l-4.54-.1a2,2,0,0,0-1.87,1.47l-1.74,7.28-1.73,7.28a1.18,1.18,0,0,0,1.17,1.51c3,0,9.64.11,13.68.11,13.11,0,20-7.28,24.46-28.18l5.19-24,4.87-22.5a1.2,1.2,0,0,0-1.22-1.5Z"/></g></g></svg>