<svg xmlns="http://www.w3.org/2000/svg" viewBox="0 0 500 500"><defs><style>.cls-1{fill:#e7a020;}</style></defs><title>Artboard 23 copy 2</title><g id="Layer_2" data-name="Layer 2"><path class="cls-1" d="M250,121.62H100l28.11,305L250,461.15l121.85-34.56,28.15-305Zm76.77,253L250,396.46l-76.77-21.8-5.42-58.41h37.92l2.51,29.23,41.76,12,41.14-11.86,4.2-48.3h-129l-.22.71,10.55-114.19H328.53l8.34,59.8H298.61l-1.39-21.88h-89.7L205.77,260H337.33Z"/><polygon class="cls-1" points="220.81 76.63 194.13 76.63 194.13 95.79 220.81 95.79 235.09 95.79 239.92 95.79 239.92 38.85 220.81 38.85 220.81 76.63"/><path class="cls-1" d="M305.87,39.14H259.34V59.08c6.22,6.23,9.47,9.21,18.48,18.21l-18.48,0V95.5h46.53V77.31L287.29,59.08h18.58Z"/></g></svg>