<svg xmlns="http://www.w3.org/2000/svg" viewBox="0 0 200 100"><path d="M65.4 43.6l.1-5.7h16.9v1.7L69.6 58.4h8.1c3.5 0 3.6-1.8 3.8-4.3H83l-.1 6.1H65.5v-1.6l12.8-18.9h-7.6c-2.7 0-3.9.3-3.9 4 .1 0-1.4-.1-1.4-.1zm18.7 14.9v1.7h18.5l.1-6h-1.6c0 3-.5 4.3-4.1 4.3h-6.9v-9.1h4.3c2.4 0 2.3.9 2.5 2.1l.1 1.3h1.6V44H97c-.1 2.1.1 3.4-2.4 3.4h-4.4v-7.9H97c3.1 0 3.8 1.1 3.8 4.1h1.5l-.1-5.7H84v1.7c2.1 0 3 .2 3 2.2V56c0 1.6-.4 2.3-1.9 2.4-.1 0-1 .1-1 .1zM125 39.7c-1.1.1-1.8.5-1.8 2.2l.1 18.3h-2.1l-12.6-18.6v14.6c0 1.6.3 2.3 2 2.4h.9v1.7h-7.7v-1.7l1.3-.1c.5-.1 1.4-.2 1.4-1.9V41.4c-.1-.9-.5-1.7-1.7-1.8h-1v-1.7h6l11.6 17V41.8c0-1.2-.5-2-1.8-2.1l-1.2-.1v-1.7h7.9v1.7c-.2 0-1.3.1-1.3.1zM6.3 48.6c0 6 3.4 10.5 8.5 10.5 2.8 0 5.3-1.4 6.4-4h1.6l-1 3.5c-1.1.8-3.7 2.2-7.3 2.2-8.1-.1-12-6.1-12-11.9 0-6 3.6-11.7 11.9-11.7 3.2 0 6.5 1.3 7.4 1.8l.4 4.7h-1.4c-.6-2.7-2.5-5-6-5-5.3 0-8.5 4.3-8.5 9.9zM33 60v-1.7c-.6 0-1-.1-1.4-.1-1.1-.1-1.9-.6-1.9-1.9V41.5c0-1.5.7-1.8 1.9-1.9.4 0 .8 0 1.3-.1v-1.7h-9.5v1.7c.5 0 .9.1 1.3.1 1.1.1 1.9.6 1.9 1.9v15c0 1.4-.7 1.8-1.8 1.9-.4 0-.8.1-1.3.1v1.7L33 60zm30.8.1v-1.7c-.6 0-.9-.1-1.4-.1-1.1-.1-1.8-.6-1.8-1.9v-15c0-1.5.7-1.9 1.9-1.9.4 0 .8 0 1.3-.1v-1.7h-9.5v1.7c.6 0 1 0 1.4.1 1.1.1 1.8.6 1.8 1.9v15c0 1.3-.9 1.8-1.8 1.9-.4 0-.8.1-1.3.1v1.7h9.4zM45.2 39.6h2.7c2.5 0 3.4.7 3.4 4h1.6l-.1-5.7H34.3l-.1 5.8h1.6c0-3.3.9-4 3.4-4H42v16.9c0 1.4-.9 1.8-1.9 1.9-.4 0-1.2 0-1.6.1v1.7h10.2v-1.7c-.7 0-1.4-.1-1.7-.1-1.1-.1-1.8-.6-1.8-1.9-.2 0 0-17 0-17zm99.6 38.7c-2.8 1.7-5.3 2.8-7.7 3.5-2.3.7-4.7 1.1-7.1 1.1-3.1 0-5.5-.5-7.4-1.6s-2.8-2.4-2.8-4.2c0-1.7.8-3 2.3-3.9 1.6-1 3.8-1.5 6.5-1.5 1.9 0 4.2.2 6.5.7 2.3.5 5.8 1.3 10.2 2.5 1.7-1.2 3.8-3.7 6.1-7.5 2.4-3.8 5.1-8.9 8.3-15.3-3.7 1-6.7 1.7-8.9 2.2-2.3.5-3.7.8-4.3.8-.5 0-.7 0-.8-.1s-.2-.1-.2-.2c0-.4 1.7-1 5.2-1.7 3.5-.8 6.7-1.6 9.6-2.4 5-8.9 10.5-16.3 16.5-22 6-5.7 11-8.5 14.8-8.5 1.5 0 2.6.4 3.5 1.3.9.9 1.3 1.9 1.3 3.5 0 3.9-2.7 8.4-8.3 13.4s-12.3 9-20.5 11.9c-3 5.9-6 11-9.1 15.1s-6.6 7.6-10.3 10.5c3.2 1.2 6.2 2.1 9.1 2.7 2.9.6 5.5 1 8 1s5-.6 7.3-1.7c2.3-1.2 4.9-3 7.5-5.6.4-.3.8-.8 1.4-1.4 1-1 1.7-1.5 2-1.5 0 0 .1 0 .1.1s.1.1.1.2c0 .3-.3.9-1 1.7-.7.9-1.6 1.7-2.5 2.6-3.3 3-6.4 5.2-9.4 6.8-3 1.6-5.7 2.3-8.4 2.3-1.8 0-4.1-.4-6.8-1.1-2.3-.7-6-2-10.8-3.7zm-2.3-.9c-4-1.5-7-2.4-9-2.9s-3.9-.7-5.5-.7c-1.9 0-3.5.3-4.6 1-1.1.6-1.7 1.5-1.7 2.5 0 1.3.8 2.3 2.4 3.1 1.7.9 3.6 1.3 6 1.3 2.1 0 4.3-.4 6.3-1.2 2.2-.5 4.2-1.6 6.1-3.1zm26-28.7c7.5-2.6 13.9-6.4 19-11.3 5.2-4.9 7.9-8.9 7.9-12.2 0-1.2-.3-2-.9-2.6-.6-.6-1.4-1-2.4-1-3.4 0-7.2 2.4-11.5 7.3s-8.3 11.4-12.1 19.8z" fill="#595f70"/></svg>