<svg id="Layer_1" data-name="Layer 1" xmlns="http://www.w3.org/2000/svg" viewBox="0 0 500 500"><defs><style>.cls-1{fill:#021e35;}.cls-2{fill:#34a3ef;}</style></defs><title>ps</title><rect class="cls-1" x="50" y="50" width="400" height="400" rx="50"/><path class="cls-2" d="M182.92,261.57v72.54c0,2.43-.39,3.94-1.17,4.55a6.78,6.78,0,0,1-4,.91h-25a6.89,6.89,0,0,1-3.9-.91c-.87-.61-1.3-2.12-1.3-4.55V144.57c0-2.08.48-3.47,1.43-4.16a5.82,5.82,0,0,1,3.51-1h52A88.49,88.49,0,0,1,230.63,143a52.53,52.53,0,0,1,20.15,11.18A50.3,50.3,0,0,1,263.65,173q4.55,11.31,4.55,26.91,0,15.08-5.07,26.52a55.68,55.68,0,0,1-13.78,19.24,58.53,58.53,0,0,1-20.8,11.83,82.05,82.05,0,0,1-26.13,4Zm0-90v57.72h17.16q15.6,0,23.92-7t8.32-22.62q0-13.78-6.63-20.93t-17.55-7.15Z"/><path class="cls-2" d="M349.58,333.85a40.67,40.67,0,0,1-15.34,7.28,88,88,0,0,1-18.2,2.34,95.57,95.57,0,0,1-10.66-.65c-3.81-.44-7.45-.95-10.92-1.56a87.78,87.78,0,0,1-9.62-2.21,58.75,58.75,0,0,1-6.76-2.34,14.38,14.38,0,0,1-3.77-2.21c-.61-.61-.82-1.87-.65-3.77l2.08-19c.17-2.08.61-3.38,1.3-3.9s2-.43,3.9.26a163.59,163.59,0,0,0,16.77,4.94,77.38,77.38,0,0,0,18.07,2.08q9.36,0,13.78-4.68a16.4,16.4,0,0,0,4.42-11.7q0-4.94-4.55-9.75a62,62,0,0,0-10.79-9q-6.24-4.15-12.74-7.67t-10.4-5.85a48.41,48.41,0,0,1-14.43-13.39A32,32,0,0,1,275.22,234q0-11.7,4-20.15A40.09,40.09,0,0,1,289.91,200a43.25,43.25,0,0,1,15.34-8.06,62.05,62.05,0,0,1,17.81-2.6,83.57,83.57,0,0,1,10,.65c3.55.43,6.93,1,10.14,1.69s6.2,1.47,9,2.34a65.08,65.08,0,0,1,6.5,2.34c1.73.87,2.73,1.65,3,2.34a7,7,0,0,1,.13,3.12l-2.34,19.76c-.35,2.08-1,3.25-1.82,3.51s-2.25,0-4.16-.91a60.85,60.85,0,0,0-28.86-6q-8.33.25-12.09,4t-3.77,10.53q0,2.86,3.38,7t12,8.84q8.06,4.43,14.56,8.45t9.88,6.37q9.36,7.28,14.17,14.56t4.81,19.5a47.32,47.32,0,0,1-4.42,20.67A41.09,41.09,0,0,1,349.58,333.85Z"/></svg>